<svg width="1335" height="430" viewBox="0 0 1336 430" fill="none" xmlns="http://www.w3.org/2000/svg"><path d="M507.369 7.60031L332.588 423.495H218.557L132.547 91.592C127.325 71.1489 122.785 63.6595 106.904 55.0468C80.9894 41.0181 38.172 27.8632 0.5 19.6942L3.05875 7.60031H186.614C210.012 7.60031 231.045 23.1338 236.357 50.0053L281.782 290.663L394.047 7.60031H507.369ZM954.17 287.709C954.629 177.942 801.98 171.895 803.03 122.86C803.356 107.937 817.603 92.0705 848.788 88.0207C864.245 86.0028 906.833 84.4633 955.136 106.633L974.083 18.4391C948.127 9.0427 914.732 0 873.18 0C766.554 0 691.515 56.5308 690.883 137.478C690.194 197.351 744.443 230.762 785.313 250.658C827.359 271.031 841.466 284.124 841.307 302.348C841.008 330.246 807.772 342.562 776.712 343.047C722.492 343.879 691.029 328.415 665.949 316.786L646.397 407.899C671.602 419.432 718.125 429.494 766.359 430C879.688 430 953.822 374.17 954.17 287.709ZM1235.73 423.502H1335.5L1248.41 7.60031H1156.32C1135.62 7.60031 1118.15 19.6249 1110.42 38.1125L948.545 423.495H1061.82L1084.31 361.368H1222.71L1235.74 423.495L1235.73 423.502ZM1115.36 276.135L1172.14 119.982L1204.82 276.135H1115.37H1115.36ZM661.506 7.60031L572.304 423.495H464.433L553.67 7.60031H661.506Z" fill="white"></path></svg>